<?xml version="1.0" encoding="UTF-8" standalone="no"?>
<svg
   xmlns:dc="http://purl.org/dc/elements/1.1/"
   xmlns:cc="http://creativecommons.org/ns#"
   xmlns:rdf="http://www.w3.org/1999/02/22-rdf-syntax-ns#"
   xmlns:svg="http://www.w3.org/2000/svg"
   xmlns="http://www.w3.org/2000/svg"
   viewBox="0 0 686.66669 686.66669"
   height="686.66669"
   width="686.66669"
   xml:space="preserve"
   id="svg2"
   version="1.1"><metadata
     id="metadata8"><rdf:RDF><cc:Work
         rdf:about=""><dc:format>image/svg+xml</dc:format><dc:type
           rdf:resource="http://purl.org/dc/dcmitype/StillImage" /></cc:Work></rdf:RDF></metadata><defs
     id="defs6" /><g
     transform="matrix(1.3333333,0,0,-1.3333333,0,686.66667)"
     id="g10"><g
       transform="scale(0.1)"
       id="g12"><path
         id="path56"
         style="fill:#65686d;fill-opacity:1;fill-rule:nonzero;stroke:none"
         d="m 3183.31,2294.79 c 0,-77.95 -63.2,-141.17 -141.17,-141.17 -77.96,0 -141.16,63.22 -141.16,141.17 0,77.97 63.2,141.18 141.16,141.18 77.97,0 141.17,-63.21 141.17,-141.18 z m 389.65,243.33 c -52.13,-94.7 -160.98,-155.56 -311.92,-176.86 -15.27,49.72 -47.08,92.25 -89,121.2 20.52,70.12 37.95,144.01 50.97,221.83 112.65,89.14 208.87,183.97 286.08,280.27 104.15,-174.24 127.11,-331.41 63.87,-446.44 z M 2834.6,2389.47 c -30.16,6.87 -60.56,14.32 -91.22,23.04 53.25,24.33 106.39,50.9 159.05,79.95 62.72,34.47 122.33,71.01 179.03,108.96 -6.49,-27.09 -13.7,-53.4 -21.25,-79.33 -5.89,0.45 -11.87,0.89 -17.87,0.89 -92.13,0 -171.51,-54.79 -207.74,-133.51 z m -259.62,-441.23 c -143.02,0 -275.6,114.87 -376.07,300.61 121.24,16.39 248,48.38 376.07,94.69 80.8,-29.19 160.91,-51.96 239.61,-69.48 4.7,-53.9 28.14,-102.49 63.87,-139.16 -88.2,-117.49 -192.66,-186.66 -303.48,-186.66 z m -506.47,653.18 c 56.7,-37.95 116.36,-74.49 179.04,-108.96 52.68,-29.05 105.79,-55.62 159.04,-79.95 -89.36,-25.39 -176.96,-43.04 -260.47,-52.24 -30.56,73.43 -56.76,154.37 -77.61,241.15 z m -55.79,485.98 c 0,110.32 8.37,217.59 23.62,319.36 82.22,62.23 171.87,120.51 267.53,173.22 88.91,48.89 180.09,91.07 271.11,126.03 91.06,-34.96 182.24,-77.14 271.14,-126.03 95.65,-52.65 185.3,-110.92 267.51,-173.22 15.28,-101.77 23.61,-209.04 23.61,-319.36 0,-110.1 -8.28,-216.97 -23.47,-318.5 -81.64,-62.29 -171.25,-121.08 -267.65,-174.1 -88.9,-48.96 -180.08,-91.18 -271.14,-126.1 -91.02,34.92 -182.2,77.14 -271.11,126.1 -96.39,53.02 -186.02,111.81 -267.66,174.1 -15.17,101.53 -23.49,208.4 -23.49,318.5 z m 3.55,-734.75 h -0.05 c -217.4,0 -373.35,65.85 -439.19,185.47 -63.29,115.03 -40.3,272.2 63.81,446.44 77.28,-96.3 173.46,-191.13 286.1,-280.27 21.4,-127.65 53.38,-245.81 94,-351.55 -1.54,-0.06 -3.12,-0.09 -4.67,-0.09 z m -111.23,525.31 c -75.12,68.46 -140.35,139.33 -194.04,210.19 54.6,72.2 119.88,142.83 194.21,210.2 -6.04,-68.53 -9.31,-138.85 -9.31,-210.95 0,-71.64 3.22,-141.46 9.14,-209.44 z m -328.01,758.67 c 56.36,102.37 178.96,165.24 349.45,181.25 12.37,-34.34 34.55,-63.96 63.3,-85.41 -26.09,-81.93 -47.45,-169.81 -63.01,-262.97 -110.01,-87.37 -206.29,-181.82 -284.7,-279.68 -100.63,167.64 -130.43,328 -65.04,446.81 z m 525.66,59.02 c 70.7,0.82 131.74,41.44 162.12,100.42 46.55,-9.06 93.88,-20.28 141.8,-33.9 -53.25,-24.33 -106.36,-50.87 -159.06,-79.91 -62.17,-34.24 -121.92,-70.84 -179.11,-109.3 10.16,42.37 21.65,83.3 34.25,122.69 z m 472.29,530.79 c 143.05,0 275.64,-114.84 376.11,-300.58 -121.27,-16.43 -248.06,-48.38 -376.11,-94.72 -98.94,35.84 -197.05,62.8 -292.52,80.88 -5.6,32.62 -19.6,62.33 -39.9,86.73 93.86,142.32 209.25,227.69 332.42,227.69 z m 506.55,-653.48 c -57.21,38.46 -116.94,75.06 -179.13,109.3 -52.7,29.04 -105.84,55.58 -159.02,79.91 89.34,25.42 176.95,43.04 260.46,52.3 30.6,-73.53 56.84,-154.6 77.69,-241.51 z m 163.23,-274.61 c 74.3,-67.37 139.62,-137.93 194.21,-210.2 -53.63,-70.86 -118.92,-141.73 -194.05,-210.19 5.96,67.98 9.16,137.8 9.16,209.44 0,72.1 -3.26,142.49 -9.32,210.95 z m -110.92,523.72 c 217.31,0 373.28,-65.86 439.12,-185.44 65.35,-118.81 35.58,-279.17 -65.02,-446.88 -78.47,97.93 -174.73,192.38 -284.72,279.75 -21.46,128.02 -53.49,246.54 -94.22,352.49 1.61,0 3.24,0.08 4.84,0.08 z M 3675.33,3693 c -87.37,158.55 -279.68,245.91 -541.49,245.91 -18.17,0 -36.51,-0.45 -54.96,-1.3 -123.42,250.62 -302.03,405.67 -503.9,405.67 -166.28,0 -316.71,-105.37 -433.57,-282.51 -13.21,2.96 -26.93,4.7 -41.06,4.7 -83.2,0 -153.54,-54.89 -176.8,-130.41 -214.57,-18.53 -372.23,-102.83 -448.86,-242.13 -93.02,-169.02 -51.57,-387.77 92.03,-606.64 -148.82,-227.19 -181.75,-441.56 -92.03,-604.54 87.28,-158.59 279.59,-245.91 541.53,-245.94 0,0 0.03,0 0.06,0 18.09,0 36.4,0.51 54.83,1.25 123.35,-250.58 302.01,-405.65 503.87,-405.65 153.4,0 293.32,89.68 405.79,242.64 19.6,-5.5 40.22,-8.63 61.57,-8.63 108.85,0 200.1,76.49 223.07,178.59 194.62,24.92 338,107.07 409.92,237.74 89.67,162.98 56.76,377.35 -92.07,604.54 143.62,218.87 185.06,437.62 92.07,606.71" /></g></g></svg>